<?xml version="1.0" encoding="UTF-8"?>
<svg width="50px" height="50px" viewBox="0 0 50 50" version="1.1" xmlns="http://www.w3.org/2000/svg" xmlns:xlink="http://www.w3.org/1999/xlink">
    <!-- Generator: Sketch 51.3 (57544) - http://www.bohemiancoding.com/sketch -->
    <title>site_logo</title>
    <desc>Created with Sketch.</desc>
    <defs></defs>
    <g id="site_logo" stroke="none" stroke-width="1" fill="none" fill-rule="evenodd">
        <path d="M37.3110068,30.2018993 L33.0698593,27.7922602 L37.4086784,25.3308143 C37.8916796,25.0571123 37.9969127,24.3464856 37.64372,23.744466 C37.2898972,23.1421343 36.611238,22.8768586 36.1279217,23.1514969 L30.5105515,26.3385497 L28.0760112,24.9547471 L37.1556777,19.7968524 C37.7993642,19.4310841 38.0340908,18.6430594 37.6793229,18.0379188 C37.3242398,17.4324662 36.5135665,17.2383468 35.8689348,17.6044272 L26.7709943,22.772933 L26.7709943,19.7721974 L32.6615295,16.3616889 C33.1476814,16.0804966 33.2538598,15.3514568 32.8984616,14.7344569 C32.5430635,14.1168328 31.8606234,13.8446912 31.3747866,14.1261954 L26.7709943,16.7914354 L26.7709943,12.3335563 C26.7709943,11.5973383 26.1978833,11 25.4905528,11 C24.7832222,11 24.2101112,11.5973383 24.2101112,12.3335563 L24.2101112,16.7798881 L19.6258532,14.1265075 C19.1397013,13.8450033 18.4575763,14.1171449 18.1024932,14.7347689 C17.7470951,15.3517688 17.8529583,16.0804966 18.3387952,16.3620009 L24.2101112,19.7609621 L24.2101112,22.7582648 L15.1597462,17.6153503 C14.5160597,17.2498941 13.7060165,17.4437013 13.3512485,18.0479056 C12.9964805,18.6533583 13.230577,19.4398226 13.8742635,19.8059029 L17.92889,22.1094318 L13.5465915,24.5958447 C13.0629601,24.870171 12.9580421,25.5804855 13.3112347,26.1821931 C13.6647424,26.7839007 14.3434017,27.0494884 14.827033,26.7757864 L20.4878827,23.5634544 L22.9328204,24.9525625 L13.6902631,30.2031476 C13.0456313,30.5695401 12.8102746,31.3569406 13.1656727,31.9636416 C13.5207558,32.5694064 14.3317441,32.761029 14.9773211,32.396509 L24.2101112,27.1512294 L24.2101112,29.9868699 L18.2723156,33.3970663 C17.7826979,33.6779465 17.6758895,34.4069864 18.0338081,35.0239863 C18.392357,35.6416104 19.0795231,35.914064 19.5697709,35.6322477 L24.2104263,32.9673198 L24.2104263,37.6670679 C24.2104263,38.4026617 24.7835373,39 25.4908678,39 C26.1981983,39 26.7713094,38.4026617 26.7713094,37.6670679 L26.7713094,32.9673198 L31.4119648,35.6322477 C31.9015824,35.913752 32.5893787,35.6412983 32.9472973,35.0239863 C33.3058462,34.4069864 33.1993528,33.6782586 32.70942,33.3970663 L26.7709943,29.9868699 L26.7709943,27.1334404 L36.0255242,32.3921398 C36.6701559,32.7585323 37.479884,32.5659734 37.834652,31.9592724 C38.189105,31.3544439 37.9550085,30.5682917 37.3110068,30.2018993 Z" id="Shape" fill="#4A4A4A" fill-rule="nonzero"></path>
        <path d="M9.96228151,16.7043121 L9.96228151,15 C7.12879485,15 5.30726771,15.8008214 5.57037718,18.4291581 L5.9549218,21.9609856 C6.09659614,23.4188912 5.3275069,24.0759754 3,24.0759754 L3,25.9240246 C5.3275069,25.9240246 6.09659614,26.5811088 5.9549218,28.0390144 L5.57037718,31.5708419 C5.30726771,34.1991786 7.12879485,35 9.96228151,35 L9.96228151,33.2956879 C8.58601656,33.2956879 7.57405704,32.9671458 7.67525299,31.7967146 L8.05979761,28.0390144 C8.26218951,26.026694 7.39190432,25.2874743 5.69181233,25 C7.33118675,24.7125257 8.26218951,23.9117043 8.05979761,21.9609856 L7.67525299,18.2032854 C7.57405704,17.0328542 8.58601656,16.7043121 9.96228151,16.7043121 Z M40.0377185,15 L40.0377185,16.7043121 C41.4139834,16.7043121 42.4461822,17.0328542 42.324747,18.2032854 L41.9402024,21.9609856 C41.7378105,23.9117043 42.6485741,24.7125257 44.449862,25.0205339 C42.6485741,25.2874743 41.7378105,26.026694 41.9402024,28.0390144 L42.324747,31.7967146 C42.4461822,32.9671458 41.4139834,33.2956879 40.0377185,33.2956879 L40.0377185,35 C42.8712052,35 44.6927323,34.1991786 44.4296228,31.5708419 L44.0450782,28.0390144 C43.9034039,26.5811088 44.8141674,25.9240246 47,25.9240246 L47,24.0759754 C44.8141674,24.0759754 43.9034039,23.4188912 44.0450782,21.9609856 L44.4296228,18.4291581 C44.6927323,15.8008214 42.8712052,15 40.0377185,15 Z" id="{--}" fill="#4990E2" fill-rule="nonzero"></path>
    </g>
</svg>