<svg width="105" height="15" viewBox="0 0 105 15" fill="none" xmlns="http://www.w3.org/2000/svg">
<g clip-path="url(#clip0)">
<path d="M7.68335 10.8254C8.42914 10.8254 9.15758 10.6108 9.75595 10.2712C10.5104 9.84207 11.7332 9.65435 12.4876 10.4231C13.3288 11.2902 13.2074 12.8635 12.2188 13.5787C10.9613 14.5083 9.36571 15 7.68335 15C3.65956 15 0 12.0948 0 7.5447V7.4553C0 2.90524 3.65956 0 7.68335 0C9.36571 0 10.9527 0.491657 12.2188 1.42133C13.2074 2.13647 13.3288 3.70977 12.4876 4.57688C11.7332 5.35459 10.5104 5.16687 9.75595 4.72884C9.15758 4.38915 8.43781 4.17461 7.68335 4.17461C5.87958 4.17461 4.25793 5.44398 4.25793 7.4553V7.5447C4.25793 9.55602 5.87958 10.8254 7.68335 10.8254Z" fill="#1C8BF1"/>
<path d="M26.1113 2.03814C26.1373 0.983313 27.0999 0.11621 28.2099 0.11621C29.3459 0.11621 30.3085 0.947556 30.3085 2.03814V12.9619C30.3085 14.0435 29.3459 14.8838 28.2099 14.8838C27.0999 14.8838 26.1373 14.0167 26.1113 12.9619V12.6847C25.2094 14.2044 23.501 15.0089 21.9141 15.0089C18.3412 15.0089 15.0979 12.2825 15.0979 7.49106C15.0892 2.6907 18.3326 0 21.9054 0C22.8073 0 24.9059 0.402264 26.1026 2.3242V2.03814H26.1113ZM22.7206 11.1651C24.6111 11.1651 26.1373 9.43087 26.1373 7.51788C26.1373 5.60489 24.6111 3.87068 22.7206 3.87068C20.622 3.87068 19.4165 5.60489 19.4165 7.51788C19.4165 9.43087 20.6133 11.1651 22.7206 11.1651Z" fill="#1C8BF1"/>
<path d="M44.3224 2.37783C44.175 3.45948 43.1864 3.96007 42.2498 3.96007C41.9463 3.96007 41.4953 3.92431 41.2265 3.92431C38.8851 3.92431 38.1046 5.78367 38.0439 9.40405V12.9619C38.0439 14.0435 37.0813 14.8838 35.9453 14.8838C34.8353 14.8838 33.8727 14.0167 33.8467 12.9619V2.03814C33.8727 0.983313 34.8353 0.11621 35.9453 0.11621C37.0813 0.11621 38.0439 0.947557 38.0439 2.03814V3.61144C38.8331 0.929678 40.2986 0 41.7382 0C43.117 0 44.5912 0.33969 44.3224 2.37783Z" fill="#1C8BF1"/>
<path d="M52.9336 10.8254C53.6881 10.8254 54.4078 10.6108 55.0062 10.2712C55.7607 9.84207 56.9834 9.65435 57.7379 10.4231C58.579 11.2902 58.4576 12.8635 57.469 13.5787C56.2116 14.5083 54.616 15 52.9336 15C48.9098 15 45.2502 12.0948 45.2502 7.5447V7.4553C45.2502 2.90524 48.9098 0 52.9336 0C54.616 0 56.2029 0.491657 57.469 1.42133C58.4576 2.13647 58.579 3.70977 57.7379 4.57688C56.9834 5.35459 55.7607 5.16687 55.0062 4.72884C54.4078 4.38915 53.6881 4.17461 52.9336 4.17461C51.1298 4.17461 49.5168 5.44398 49.5168 7.4553V7.5447C49.5082 9.55602 51.1298 10.8254 52.9336 10.8254Z" fill="#1C8BF1"/>
<path d="M71.3615 2.03814C71.3875 0.983313 72.3501 0.11621 73.4601 0.11621C74.6048 0.11621 75.5588 0.947556 75.5588 2.03814V12.9619C75.5588 14.0435 74.5962 14.8838 73.4601 14.8838C72.3501 14.8838 71.3875 14.0167 71.3615 12.9619V12.6847C70.4596 14.2044 68.7513 15.0089 67.1643 15.0089C63.5915 15.0089 60.3481 12.2825 60.3481 7.49106C60.3481 2.69964 63.5915 0 67.1643 0C68.0662 0 70.1648 0.402264 71.3615 2.3242V2.03814ZM67.9708 11.1651C69.8613 11.1651 71.3962 9.43087 71.3962 7.51788C71.3962 5.60489 69.87 3.87068 67.9708 3.87068C65.8722 3.87068 64.6668 5.60489 64.6668 7.51788C64.6668 9.43087 65.8635 11.1651 67.9708 11.1651Z" fill="#1C8BF1"/>
<path d="M89.5726 2.37783C89.4252 3.45948 88.4366 3.96007 87.5 3.96007C87.1965 3.96007 86.7456 3.92432 86.4768 3.92432C84.1353 3.92432 83.3549 5.78367 83.2942 9.40405V12.9619C83.2942 14.0435 82.3316 14.8838 81.1955 14.8838C80.0855 14.8838 79.1229 14.0167 79.0969 12.9619V2.03814C79.1229 0.983315 80.0855 0.116211 81.1955 0.116211C82.3402 0.116211 83.2942 0.947558 83.2942 2.03814V3.61144C84.0746 0.92074 85.5489 -0.00893784 86.9884 -0.00893784C88.3759 1.37743e-06 89.8415 0.339692 89.5726 2.37783Z" fill="#1C8BF1"/>
<path d="M102.659 13.7038C101.245 14.6603 99.476 15 97.8283 15C93.8045 15 90.5092 11.9964 90.5092 7.4553C90.5092 2.90524 93.8132 0 97.8283 0C101.817 0 105 3.03039 105 7.58045C105 8.35816 104.367 8.9124 103.708 8.9124H94.6717C94.8798 10.584 96.6489 11.2902 98.1231 11.2902C98.9643 11.2902 99.6841 11.2277 100.551 10.6108C101.514 9.93147 102.589 10.1192 103.196 10.8254C103.977 11.7551 103.673 13.087 102.659 13.7038ZM100.794 6.22169C100.586 4.46067 99.4152 3.59356 97.8543 3.59356C96.2933 3.59356 95.0966 4.39809 94.7324 6.22169H100.794Z" fill="#1C8BF1"/>
</g>
<defs>
<clipPath id="clip0">
<rect width="105" height="15" fill="white"/>
</clipPath>
</defs>
</svg>
