<?xml version="1.0" encoding="utf-8"?>
<!-- Generator: Adobe Illustrator 23.0.2, SVG Export Plug-In . SVG Version: 6.00 Build 0)  -->
<svg version="1.1" id="Layer_1" xmlns="http://www.w3.org/2000/svg" xmlns:xlink="http://www.w3.org/1999/xlink" x="0px" y="0px"
	 viewBox="0 0 295 57" style="enable-background:new 0 0 295 57;" xml:space="preserve">
<style type="text/css">
	.st0{fill:#EE7D16;}
</style>
<path class="st0" d="M114.6,11.7c-9.1,0-18,8-19.8,17.4c-0.2,1-0.3,1.9-0.3,2.9c0,7.7,5.7,14,13.6,14c4.9,0,9.7-2.2,13.8-5.9
	l0.1-0.1h11.8l-0.3,0.5c-5.7,9.4-16.8,15.3-26.9,15.3c-6.6,0-12.2-2.4-16.1-6.5c-3.9-4-6.2-9.6-6.2-15.9c0-1.6,0.1-3.3,0.5-5
	C87.5,14,101.8,1.8,116.3,1.8c10.4,0,19.6,6.1,21.8,15.9l0.1,0.4h-11.5l-0.1-0.2C124.2,14.2,119.6,11.7,114.6,11.7L114.6,11.7z
	 M142.1,25.6l-1.6,8.6h19.9l1.6-8.9h-19.9L142.1,25.6L142.1,25.6z M289.1,8.8c3.8,3.8,5.7,9.5,5.7,15.3c0,1.6-0.2,3.3-0.4,4.9
	c-1.3,7.2-6.1,14.9-12.6,19.7c-7.2,5.3-14.7,6-22.5,6h-11.3h-0.1h-11.1l-3.1-13.2H216l-8.1,13.2h-8.4v0h-12.5l-9.4-18.9L174,54.7
	h-10.2L173.3,3l0.1-0.3h15.1c4.8,0.1,9.5,0.3,12.9,3.7c2.6,2.5,4,6.2,4,10c0,1-0.1,1.9-0.3,2.9c-0.7,3.8-3.3,8.5-6.4,11.4
	c-2.9,2.6-6.2,4.1-9.7,4.9l9,16.5l29.6-49.2l0.1-0.2h7.9l12.2,51.7L257.4,3l0.1-0.3h11C276.1,2.8,283.9,3.6,289.1,8.8L289.1,8.8z
	 M183.8,27.2c2.5,0,5.7-0.4,7.7-2.1c1.7-1.4,2.9-3.3,3.3-5.3c0.1-0.4,0.1-0.9,0.1-1.3c0-1.6-0.6-3.1-1.7-4.1
	c-1.6-1.4-3.4-1.7-5.6-1.7c-0.3,0-0.6,0-0.9,0h-5l-2.7,14.5H183.8L183.8,27.2z M221.5,31.5h9.9l-2.4-14.1L221.5,31.5L221.5,31.5z
	 M284.2,28.9c0.2-1.1,0.3-2.2,0.3-3.2c0-4-1.5-7.7-4.4-10c-3.6-2.8-8.8-3-13.8-3h-0.4l-6,32.1h0.8c5.3,0,10.2-0.2,15.1-3.4
	C280.2,38.3,283.3,33.8,284.2,28.9L284.2,28.9z M0,56.8h17.2h8.2C42,53.9,28.1,25.9,9.4,7.5L0,56.8L0,56.8z M9.6,6.2
	c23.2,17.2,53.1,41.4,51.6,50.6h0.1L72,0.2H10.7L9.6,6.2L9.6,6.2z"/>
</svg>
