<?xml version="1.0" encoding="utf-8"?>
<!-- Generator: Adobe Illustrator 21.1.0, SVG Export Plug-In . SVG Version: 6.00 Build 0)  -->
<svg version="1.1" id="Layer_1" xmlns="http://www.w3.org/2000/svg" xmlns:xlink="http://www.w3.org/1999/xlink" x="0px" y="0px"
	 viewBox="0 0 403 137" style="enable-background:new 0 0 403 137;" xml:space="preserve">
<style type="text/css">
	.st0{fill:#FA9214;}
	.st1{fill:#FFFFFF;}
</style>
<path class="st0" d="M0,85.5l11-57.9l0.5-2.7c1.3-7,3.9-13.8,9.5-18.6C25.3,2.6,31.2,1,36.9,1c4,0,7,0.6,8.9,1.4l-3.1,12.8
	c-1.5-0.5-3.1-0.8-5.2-0.8c-5.6,0-8.8,5-9.8,10.6l-0.5,2.7h11.2l-2.2,12.2H25l-8.6,45.7H0V85.5z"/>
<path class="st0" d="M179.1,85.5l11-57.9l0.5-2.7c1.3-7,3.9-13.8,9.5-18.6c4.4-3.8,10.3-5.4,16-5.4c4,0,7,0.6,8.9,1.4l-3.1,12.8
	c-1.5-0.5-3.1-0.8-5.2-0.8c-5.6,0-8.8,5-9.8,10.6l-0.5,2.7h11.2l-2.2,12.2h-11.2l-8.6,45.7H179.1z"/>
<path class="st0" d="M90.3,85.5l6.9-35.8c1.4-8,2.2-16.9,3-22h14.1c-0.2,3.7-0.6,7.3-1.1,11.2h0.5c4.1-7.6,10.2-12.4,17.2-12.4
	c1.1,0,2,0.1,3,0.1l-3.2,16.1c-0.6-0.1-1.7-0.1-2.6-0.1c-9.5,0-14.9,9-16.9,19.9l-4.4,23.1H90.3V85.5z"/>
<path class="st0" d="M164.9,43.7c0-3-2.1-5-5.7-5c-6.9,0-11.2,6.4-12.5,12.7c11.6,0.2,18.2-2,18.2-7.6V43.7z M172.9,82.5
	c-6.3,3-13.6,4.1-20.1,4.1c-15.9,0-23.4-9.3-23.4-23.5c0-17.5,11.7-36.6,31.9-36.6c11.4,0,18.6,6.9,18.7,16.8
	c0,15.1-13.8,20.7-34.9,20.1c0,1.7,0.5,4.4,1.7,6.2c2,2.7,5.4,4.3,10.2,4.3c5.8,0,10.6-1.3,14.9-3.4L172.9,82.5z"/>
<path class="st0" d="M304.9,85.5l7.5-39c1.3-7.1,2.2-13.5,3.1-18.8h14.3l-0.9,9h0.2c5-6.9,11.6-10.2,18.8-10.2
	c9.1,0,13.8,5.8,13.8,14.9c0,2.8-0.5,6.9-1.1,10.1l-6.5,34.1h-16.3l6.3-33.1c0.4-2.1,0.6-4.3,0.6-6.4c0-3.7-1.3-6.3-5.1-6.3
	c-5,0-10.9,6.4-13.1,18.6l-5.1,27.2h-16.5V85.5z"/>
<path class="st0" d="M212.3,85.5l6.9-35.8c1.4-8,2.2-16.9,3-22h14.1c-0.2,3.7-0.6,7.3-1.1,11.2h0.5c4.1-7.6,10.2-12.4,17.2-12.4
	c1.1,0,2,0.1,3,0.1l-3.2,16.1c-0.6-0.1-1.7-0.1-2.6-0.1c-9.5,0-14.9,9-16.9,19.9l-4.4,23.1h-16.5V85.5z"/>
<path class="st0" d="M391,12.2l-3,15.5h12l-2.4,12.2h-11.9l-4.3,21.6c-0.5,2.2-0.8,4.9-0.8,6.6c0,3.1,1.4,4.8,4.9,4.8
	c1.3,0,3,0,4.4-0.2L388,85.4c-2.4,0.8-6.3,1.2-9.7,1.2c-9.7,0-14.4-5.1-14.4-12.5c0-3,0.4-6.2,1.2-10.2l9-46.8L391,12.2z"/>
<path class="st0" d="M59.9,74.2c8.6,0,13.5-15.4,13.5-25.3c0-5-1.9-9.8-7.7-9.8C56.9,39,52,54.3,52,63.5c0,6,2.4,10.6,7.8,10.6
	L59.9,74.2L59.9,74.2z M57.8,86.7c-14.7,0-22.5-10.2-22.5-22.7c0-19.8,13-37.5,32.7-37.5c15.3,0,22.1,11.1,22.1,22.8
	C90.1,69.4,77.1,86.7,57.8,86.7L57.8,86.7z"/>
<path class="st0" d="M276.1,74.2c8.6,0,13.5-15.4,13.5-25.3c0-5-1.9-9.8-7.7-9.8c-8.9,0-13.7,15.3-13.7,24.5c0,6,2.4,10.6,7.8,10.6
	H276.1z M273.9,86.7c-14.7,0-22.5-10.2-22.5-22.7c0-19.8,13-37.5,32.7-37.5c15.3,0,22.1,11.1,22.1,22.8c0,20.1-13,37.4-32.2,37.4
	H273.9z"/>
<path class="st1" d="M223.2,125.5c-1.1,0.5-3.3,1.1-5.9,1.1c-6.5,0-10.7-4.1-10.7-10.6c0-6.2,4.3-11.1,11.6-11.1
	c1.9,0,3.9,0.4,5.1,1l-0.9,3.9c-0.9-0.4-2.1-0.8-4-0.8c-4,0-6.4,2.9-6.4,6.7c0,4.3,2.8,6.7,6.4,6.7c1.8,0,3.1-0.4,4.1-0.8
	L223.2,125.5z"/>
<path class="st1" d="M229.9,115.7c0,4,2,7,5.2,7c3,0,5.1-2.9,5.1-7.1c0-3.2-1.5-7-5-7C231.4,108.7,229.9,112.3,229.9,115.7
	 M245.6,115.5c0,7.6-5.4,11.1-10.7,11.1c-5.9,0-10.4-4.1-10.4-10.7c0-6.8,4.5-11,10.8-11C241.4,104.9,245.6,109.2,245.6,115.5"/>
<path class="st1" d="M249,111.5c0-2.4,0-4.4-0.2-6.2h4.6l0.3,3.1h0.1c0.9-1.6,3.2-3.6,6.6-3.6c3.6,0,7.4,2.4,7.4,8.9V126h-5.3v-11.7
	c0-3-1.1-5.3-4-5.3c-2.1,0-3.5,1.5-4.1,3.1c-0.2,0.5-0.2,1.1-0.2,1.7V126H249V111.5z"/>
<path class="st1" d="M272.2,121.3c1.2,0.7,3.5,1.5,5.3,1.5c2.3,0,3.3-0.9,3.3-2.3s-0.9-2.1-3.4-3c-4.1-1.4-5.8-3.6-5.7-6.1
	c0-3.7,3-6.5,7.9-6.5c2.3,0,4.3,0.6,5.5,1.2l-1,3.7c-0.9-0.5-2.6-1.2-4.4-1.2c-1.9,0-2.9,0.9-2.9,2.2c0,1.3,1,2,3.6,2.9
	c3.8,1.4,5.5,3.3,5.6,6.4c0,3.8-2.9,6.5-8.5,6.5c-2.5,0-4.8-0.6-6.3-1.5L272.2,121.3z"/>
<path class="st1" d="M307.8,119.9c0,2.5,0.1,4.5,0.2,6.2h-4.6l-0.3-3.2H303c-0.9,1.5-2.9,3.6-6.7,3.6c-3.8,0-7.3-2.3-7.3-9.1v-12.2
	h5.3v11.3c0,3.5,1.1,5.7,3.9,5.7c2.1,0,3.5-1.5,4-2.8c0.2-0.5,0.3-1,0.3-1.6v-12.6h5.3L307.8,119.9L307.8,119.9z"/>
<polygon class="st1" points="312.6,97.4 317.9,96.1 317.9,126.1 312.6,126.1 "/>
<path class="st1" d="M327.4,99.4v5.9h5v3.9h-5v9.2c0,2.5,0.7,3.8,2.7,3.8c0.9,0,1.6-0.1,2-0.3l0.1,4c-0.8,0.3-2.1,0.5-3.8,0.5
	c-1.9,0-3.5-0.6-4.5-1.7c-1.1-1.2-1.6-3.1-1.6-5.8v-18.4L327.4,99.4z"/>
<rect x="335.3" y="105.3" class="st1" width="5.3" height="20.8"/>
<path class="st1" d="M345.3,111.5c0-2.4,0-4.4-0.2-6.2h4.6l0.3,3.1h0.1c0.9-1.6,3.2-3.6,6.6-3.6c3.6,0,7.4,2.4,7.4,8.9V126h-5.3
	v-11.7c0-3-1.1-5.3-4-5.3c-2.1,0-3.5,1.5-4.1,3.1c-0.2,0.5-0.2,1.1-0.2,1.7V126h-5.3v-14.5H345.3z"/>
<path class="st1" d="M382.5,113.6c0-0.5,0-1-0.2-1.4c-0.6-1.9-2-3.4-4.3-3.4c-2.9,0-5.1,2.6-5.1,6.8c0,3.5,1.8,6.4,5.1,6.4
	c2,0,3.7-1.3,4.3-3.2c0.1-0.6,0.2-1.3,0.2-1.9V113.6z M387.9,105.3c-0.1,1.4-0.2,3.1-0.2,6v11.8c0,4.4-0.9,7.5-3.1,9.4
	s-5.2,2.5-8,2.5c-2.6,0-5.5-0.6-7.3-1.7l1.2-4c1.3,0.8,3.5,1.6,6.1,1.6c3.4,0,6-1.8,6-6.3v-1.8h-0.1c-1.2,1.8-3.3,3.1-6.1,3.1
	c-5.2,0-8.8-4.3-8.8-10.2c0-6.8,4.4-11,9.4-11c3.2,0,5,1.5,6,3.2h0.1l0.2-2.8h4.6V105.3z"/>
<polygon class="st1" points="340.6,96.1 335.3,97.4 335.3,101.4 340.6,101.4 "/>
</svg>
