<svg width="176" height="223" viewBox="0 0 176 223" xmlns="http://www.w3.org/2000/svg" style="background:#f7f7f7"><title>grand-north_solid</title><g fill="#393E42" fill-rule="evenodd"><path opacity=".7" d="M88.293 58.383v43.907l26.962 8.905z"/><path d="M88.293 58.383v43.907l-26.961 8.905z"/><g><path d="M155.957 189.878a.83.83 0 0 1 .838-.845.84.84 0 0 1 .845.845.834.834 0 0 1-.845.837.823.823 0 0 1-.838-.837zm1.422 0a.594.594 0 0 0-.584-.585.594.594 0 0 0-.585.585c0 .316.269.584.585.584a.593.593 0 0 0 .584-.584zm-3.151 6.699l2.433-5.46c.015-.031.055-.054.094-.054h.024c.039 0 .079.008.102.055l2.41 5.459c.016.047.016.094-.071.094h-.205a.129.129 0 0 1-.111-.071l-.64-1.453h-3.018l-.632 1.453a.126.126 0 0 1-.11.07h-.221c-.055 0-.08-.03-.055-.093zm3.902-1.738l-1.351-3.144h-.016l-1.374 3.144h2.74zm-11.497-3.595c0-.055.039-.102.103-.102h1.959c.963 0 1.761.702 1.761 1.666 0 .798-.552 1.462-1.303 1.675l1.153 2.046c.04.063.024.142-.055.142h-.205c-.095 0-.127-.024-.166-.095l-1.13-2.046c-.103.01-.19.01-.293.01h-1.453v2.03c0 .054-.048.101-.126.101h-.142a.104.104 0 0 1-.103-.102v-5.325zm2.046 2.931c.758 0 1.398-.584 1.398-1.367 0-.75-.64-1.303-1.406-1.303h-1.659v2.67h1.667zm-8.458-.19l-2.015-2.725c-.047-.063-.016-.118.063-.118h.237c.04 0 .079.016.103.048l1.801 2.456 1.833-2.456a.127.127 0 0 1 .103-.048h.237c.079 0 .11.055.063.118l-2.054 2.718v2.59a.105.105 0 0 1-.103.104c-.102 0-.268.023-.268-.103v-2.583zm-6.544-.125c.546.157 1.004.568 1.004 1.31 0 .886-.713 1.502-1.739 1.502h-1.754a.105.105 0 0 1-.102-.103v-5.324c0-.055.046-.103.102-.103h1.683c.971 0 1.635.56 1.635 1.43 0 .616-.348 1.066-.83 1.27v.018zm-.75-.16c.742 0 1.177-.464 1.177-1.112 0-.688-.475-1.1-1.234-1.1h-1.422v2.213h1.478zm.047 2.64c.766 0 1.304-.458 1.304-1.177 0-.703-.546-1.122-1.296-1.122h-1.534v2.299h1.525zm-9.526-.403l.07-.095c.056-.063.112-.087.175-.031.079.07.664.608 1.462.608.718 0 1.327-.387 1.327-1.06 0-.702-.577-1.018-1.533-1.342-.916-.324-1.525-.647-1.525-1.556 0-.593.475-1.398 1.707-1.398a2.6 2.6 0 0 1 1.359.403c.03.023.086.078.03.165l-.062.103c-.04.07-.095.087-.174.039-.023-.015-.553-.371-1.161-.371-.972 0-1.335.6-1.335 1.05 0 .672.513.965 1.31 1.226 1.083.37 1.77.75 1.77 1.666 0 .877-.813 1.406-1.721 1.406a2.576 2.576 0 0 1-1.676-.647c-.047-.04-.086-.08-.023-.166zm-8.837-4.772c0-.063.055-.103.118-.103h.055c.056 0 .095.016.127.063l3.744 4.874h.008v-4.755c0-.055.048-.102.103-.102h.158c.056 0 .103.047.103.102v5.403c0 .071-.063.103-.126.103h-.024c-.056 0-.095-.016-.126-.064l-3.777-4.92h-.008v4.802a.105.105 0 0 1-.103.103h-.149a.105.105 0 0 1-.103-.103v-5.403zm-7.217-.102a2.84 2.84 0 0 1 2.852 2.852c0 1.588-1.264 2.836-2.852 2.836a2.82 2.82 0 0 1-2.843-2.836 2.838 2.838 0 0 1 2.843-2.852zm0 5.34a2.49 2.49 0 0 0 2.504-2.488 2.504 2.504 0 0 0-2.504-2.504 2.498 2.498 0 0 0-2.496 2.504 2.485 2.485 0 0 0 2.496 2.488zm-7.57-5.158c0-.055.048-.103.104-.103h.173c.056 0 .103.048.103.103v5.324c0 .063-.055.103-.11.103h-.166a.105.105 0 0 1-.103-.103v-5.324zm-6.067.236h-1.51c-.078 0-.102-.047-.102-.118v-.119a.1.1 0 0 1 .103-.102h3.397a.1.1 0 0 1 .103.102v.134a.1.1 0 0 1-.103.103h-1.516v5.087c0 .056-.048.103-.127.103h-.142a.104.104 0 0 1-.103-.103v-5.087zm-9.57 5.096l2.433-5.46a.109.109 0 0 1 .094-.054h.024c.039 0 .079.008.103.055l2.409 5.459c.016.047.016.095-.071.095h-.205a.13.13 0 0 1-.111-.072l-.64-1.453h-3.017l-.632 1.453a.128.128 0 0 1-.111.072h-.221c-.055 0-.08-.032-.055-.095zm3.902-1.738l-1.351-3.144h-.016l-1.374 3.144h2.74zM76.92 191.26c0-.07.047-.118.12-.118h.141c.071 0 .118.047.118.118v2.457l2.686-2.52c.063-.055.087-.055.158-.055h.221c.087 0 .095.087.048.134l-2.749 2.567 2.836 2.694c.047.04.031.134-.072.134h-.253c-.07 0-.11-.015-.173-.079l-2.702-2.606v2.583c0 .078-.055.102-.118.102h-.158c-.063 0-.103-.039-.103-.102v-5.309zm-5.076-.015c0-.055.047-.103.103-.103h.174c.055 0 .102.048.102.103v5.324c0 .063-.055.103-.11.103h-.166a.105.105 0 0 1-.103-.103v-5.324zm-9.13-.08c0-.063.055-.103.118-.103h.056c.055 0 .095.016.126.063L66.76 196h.008v-4.755c0-.055.047-.102.102-.102h.158c.056 0 .103.047.103.102v5.403c0 .071-.063.103-.126.103h-.024c-.055 0-.095-.016-.126-.064l-3.776-4.92h-.01v4.802a.105.105 0 0 1-.101.103h-.15a.105.105 0 0 1-.103-.103v-5.403zm-8.81.08c0-.055.046-.103.102-.103h.166c.055 0 .103.048.103.103v3.405c0 1.019.64 1.738 1.69 1.738 1.058 0 1.707-.711 1.707-1.73v-3.413c0-.063.031-.103.11-.103h.158c.055 0 .103.048.103.103v3.444c0 1.209-.822 2.062-2.078 2.062-1.249 0-2.062-.853-2.062-2.062v-3.444zm-9.056-.127a.076.076 0 0 1 .07-.055h.088c.039 0 .063.015.079.055l1.627 4.851h.016l1.635-4.85c.016-.04.04-.056.079-.056h.087c.032 0 .063.023.07.055l1.123 5.451c.016.078-.016.102-.087.102h-.19c-.047 0-.087-.039-.095-.087l-.892-4.629h-.016l-1.596 4.732c-.016.047-.063.063-.11.063h-.032c-.04 0-.086-.007-.103-.063l-1.595-4.732h-.016l-.893 4.63c-.008.047-.047.086-.095.086h-.19c-.07 0-.102-.024-.086-.102l1.122-5.45zm-9.976 0a.076.076 0 0 1 .071-.055h.088c.04 0 .062.015.078.055l1.627 4.851h.016l1.635-4.85c.016-.04.04-.056.08-.056h.087c.031 0 .063.023.071.055l1.122 5.451c.015.078-.016.102-.087.102h-.19c-.048 0-.087-.039-.095-.087l-.893-4.629h-.015l-1.596 4.732c-.016.047-.063.063-.11.063h-.033c-.039 0-.086-.007-.102-.063l-1.595-4.732h-.016l-.893 4.63c-.008.047-.048.086-.095.086h-.189c-.07 0-.103-.024-.088-.102l1.122-5.45zm-7.826-.055a2.84 2.84 0 0 1 2.852 2.852c0 1.588-1.264 2.836-2.852 2.836a2.82 2.82 0 0 1-2.844-2.836 2.838 2.838 0 0 1 2.844-2.852zm0 5.34a2.492 2.492 0 0 0 2.504-2.488 2.505 2.505 0 0 0-2.504-2.504 2.498 2.498 0 0 0-2.497 2.504 2.485 2.485 0 0 0 2.497 2.488zm-9.767-5.143c0-.07.048-.118.119-.118h.142c.07 0 .118.047.118.118v2.457l2.686-2.52c.063-.055.087-.055.158-.055h.222c.086 0 .095.087.047.134l-2.75 2.567 2.837 2.694c.047.04.03.134-.072.134h-.252c-.071 0-.11-.015-.173-.079l-2.703-2.606v2.583c0 .078-.055.102-.118.102h-.158c-.063 0-.103-.039-.103-.102v-5.309zM140.948 175.132c0 4.47.566 5.288 4.092 5.288v1.196h-12.528v-1.196c3.525 0 4.092-.818 4.092-5.288v-8.058c0-4.47-.567-5.225-4.092-5.225v-1.196h12.528v1.196c-3.526 0-4.092.756-4.092 5.225v2.455h11.08v-2.455c0-4.47-.63-5.225-4.093-5.225v-1.196H160.4v1.196c-3.525 0-4.092.756-4.092 5.225v8.058c0 4.47.567 5.288 4.092 5.288v1.196h-12.465v-1.196c3.463 0 4.093-.818 4.093-5.288v-3.651h-11.08v3.65zm-30.72-12.59c-4.533 0-5.226.755-5.729 2.832l-.315 1.196h-1.07l.504-5.918h23.166l.441 5.918h-1.007l-.316-1.196c-.566-2.077-1.195-2.833-5.728-2.833h-2.833v12.59c0 4.471.567 5.288 4.092 5.288v1.197h-12.528v-1.197c3.463 0 4.093-.817 4.093-5.288v-12.59h-2.77zm-25.352 10.324v2.265c0 4.471.566 5.288 4.092 5.288v1.197H76.44v-1.197c3.526 0 4.092-.817 4.092-5.288v-8.057c0-4.47-.566-5.225-4.092-5.225v-1.197h11.08c5.54 0 8.499 2.645 8.499 6.107 0 2.77-2.078 5.225-5.981 5.918l2.896 3.147c2.518 2.77 4.343 4.218 7.05 4.595v1.197h-7.05l-6.988-8.75h-1.07zm2.58-10.325h-2.58v8.373h2.58c2.834 0 4.093-1.952 4.093-4.155 0-2.266-1.26-4.218-4.092-4.218zm-28.575 19.893c-6.925 0-12.59-5.099-12.59-11.331 0-6.17 5.665-11.269 12.59-11.269s12.591 5.099 12.591 11.269c0 6.232-5.666 11.331-12.59 11.331zm0-20.648c-5.792 0-7.806 5.225-7.806 9.317 0 4.155 2.014 9.317 7.806 9.317 5.854 0 7.87-5.162 7.87-9.317 0-4.092-2.016-9.317-7.87-9.317zm-21.131 5.288v15.298h-1.322L21.76 166.76v8.372c0 4.47.567 5.288 4.092 5.288v1.196H15.717v-1.196c3.525 0 4.092-.818 4.092-5.288v-8.058c0-4.47-.567-5.225-4.092-5.225v-1.196h6.232l13.85 14.668v-8.247c0-4.47-.567-5.225-4.092-5.225v-1.196h10.135v1.196c-3.525 0-4.092.755-4.092 5.225zm97.973-18.358c3.525 0 4.092-.818 4.092-5.288v-8.057c0-4.47-.567-5.225-4.092-5.225v-1.197h11.269c9.002 0 12.905 4.722 12.905 10.45 0 5.729-3.903 10.513-12.905 10.513h-11.269v-1.196zm11.458-17.878h-3.022v13.66c0 2.896.314 3.463 2.581 3.463h.441c6.547 0 7.743-4.785 7.743-8.624 0-3.715-1.196-8.5-7.743-8.5zm-21.367 4.533v15.297h-1.322l-14.668-15.612v8.373c0 4.469.567 5.288 4.092 5.288v1.196H103.78v-1.196c3.526 0 4.092-.82 4.092-5.288v-8.058c0-4.47-.566-5.225-4.092-5.225v-1.196h6.233l13.85 14.668v-8.247c0-4.47-.567-5.225-4.093-5.225v-1.196h10.136v1.196c-3.526 0-4.092.755-4.092 5.225zm-46.436 9.82c-1.195 2.518-1.195 3.525 2.707 3.525v1.196h-10.01v-1.196c3.149 0 3.715-.818 5.289-4.28l7.68-16.305h1.133l7.617 16.304c1.574 3.4 2.204 4.281 5.037 4.281v1.196H86.68v-1.196c3.588 0 3.966-1.007 2.77-3.525l-.944-2.078h-8.184l-.945 2.078zm5.037-10.702l-3.148 6.736h6.295l-3.147-6.736zm-31.43 6.673v2.266c0 4.47.565 5.288 4.091 5.288v1.196H44.548v-1.196c3.526 0 4.092-.818 4.092-5.288v-8.057c0-4.47-.566-5.225-4.092-5.225v-1.197h11.08c5.54 0 8.5 2.644 8.5 6.107 0 2.77-2.079 5.225-5.982 5.917l2.896 3.148c2.518 2.77 4.344 4.218 7.051 4.595v1.196h-7.05l-6.989-8.75h-1.07zm2.58-10.324h-2.58v8.373h2.58c2.833 0 4.092-1.952 4.092-4.155 0-2.267-1.259-4.218-4.092-4.218zm-40.004 8.561c0-6.169 5.35-11.269 11.96-11.269 2.457 0 5.164 1.197 6.737 2.96.315-.504.567-1.386.819-2.14h1.195v8.623h-1.258c-1.008-4.658-3.652-7.49-7.492-7.49-5.666 0-7.176 5.287-7.176 9.316 0 4.03 1.51 9.317 7.176 9.317 3.21 0 5.855-1.133 5.855-4.029 0-2.14-.944-2.959-3.966-2.959v-1.196h11.898v1.196c-3.525 0-4.092.755-4.092 5.225v1.89c-2.707 0-7.051 1.888-9.695 1.888-6.61 0-11.961-5.1-11.961-11.332z"/></g></g></svg>