<?xml version="1.0" standalone="no"?><!-- Generator: Gravit.io --><svg xmlns="http://www.w3.org/2000/svg" xmlns:xlink="http://www.w3.org/1999/xlink" style="isolation:isolate" viewBox="113.386 252.875 340.157 61.179" width="340.157" height="61.179"><g style="isolation:isolate"><path d=" M 270.574 266.814 C 267.503 266.814 264.084 267.279 261.295 270.337 L 261.295 267.739 L 251.025 267.739 L 251.025 304.774 L 261.668 304.774 L 261.668 285.296 C 261.668 278.157 267.1 277.387 269.435 277.387 C 272.105 277.387 273.522 278.137 275.065 279.433 L 276.003 280.221 L 280.811 270.955 L 280.303 270.446 C 278.096 268.241 274.278 266.814 270.574 266.814 Z  M 371.411 267.17 C 367.435 267.17 364.05 268.487 360.636 271.399 L 360.636 267.668 L 350.582 267.668 L 350.582 304.774 L 361.155 304.774 L 361.155 285.866 L 361.155 272.825 L 363.62 279.396 C 365.032 277.925 366.948 277.032 369.135 277.032 C 374.652 277.032 376.617 281.375 376.617 285.439 L 376.617 304.774 L 387.261 304.774 L 387.261 285.367 C 387.261 274.482 380.891 267.17 371.411 267.17 Z  M 286.102 304.774 L 296.673 304.774 L 296.673 253.085 L 286.102 255.346 L 286.102 304.774 Z  M 216.967 281.183 C 218.355 278.075 221.356 276.321 225.389 276.321 C 227.938 276.321 232.168 276.983 233.305 281.183 L 216.967 281.183 Z  M 225.104 266.672 C 213.37 266.672 205.485 274.443 205.485 286.007 C 205.485 297.969 213.438 305.699 225.745 305.699 C 231.923 305.699 237.973 303.402 241.533 299.707 L 242.207 299.007 L 235.262 292.153 L 234.571 292.866 C 232.706 294.797 228.706 295.838 225.888 295.838 C 221.072 295.838 217.637 293.758 216.635 290.334 L 243.712 290.334 L 243.796 289.443 C 244.485 282.08 242.949 276.101 239.354 272.154 C 236.088 268.568 231.16 266.672 225.104 266.672 Z  M 329.892 292.929 C 328.224 294.88 325.825 295.909 322.956 295.909 C 317.332 295.909 313.554 292.016 313.554 286.221 C 313.554 280.469 317.332 276.604 322.956 276.604 C 329.318 276.604 332.217 281.608 332.217 286.257 C 332.217 288.809 331.391 291.178 329.892 292.929 Z  M 332.515 270.884 C 330.041 268.4 326.245 266.886 322.181 266.886 C 316.501 266.804 311.603 268.693 308.185 272.091 C 304.735 275.517 302.91 280.403 302.91 286.221 C 302.91 292.283 304.748 297.312 308.226 300.766 C 311.571 304.088 316.256 305.841 321.798 305.841 C 321.857 305.841 321.917 305.841 321.978 305.839 C 324.59 305.792 327.573 304.962 330.038 303.452 L 332.866 295.909 L 332.866 304.774 L 342.932 304.774 L 342.932 267.739 L 332.7 267.739 L 332.515 270.884 Z  M 113.386 258.834 C 113.386 262.807 116.457 264.884 119.49 264.884 C 122.523 264.884 125.595 262.807 125.595 258.834 C 125.595 250.888 113.386 250.888 113.386 258.834 Z  M 197.617 294.449 C 196.412 295.051 195.007 295.411 193.859 295.411 C 191.524 295.411 190.289 294.03 190.289 291.414 L 190.289 277.244 L 200.035 277.244 L 200.035 267.81 L 190.36 267.81 L 190.36 253.085 L 179.717 255.346 L 179.717 267.81 L 173.173 267.81 L 173.173 277.244 L 179.717 277.244 L 179.717 291.414 C 179.717 295.924 181.027 299.568 183.504 301.953 C 185.725 304.093 188.86 305.214 192.597 305.214 C 192.834 305.214 193.074 305.208 193.316 305.199 C 196.071 305.125 198.25 304.672 200.839 303.637 L 201.693 303.294 L 198.636 293.938 L 197.617 294.449 Z  M 114.169 304.774 L 124.812 304.774 L 124.812 267.597 L 114.169 267.597 L 114.169 304.774 Z  M 153.797 267.17 C 149.821 267.17 146.435 268.487 143.021 271.399 L 143.021 267.668 L 132.967 267.668 L 132.967 304.774 L 143.54 304.774 L 143.54 285.866 L 143.54 272.825 L 146.005 279.396 C 147.418 277.925 149.333 277.032 151.52 277.032 C 157.038 277.032 159.003 281.375 159.003 285.439 L 159.003 304.774 L 169.647 304.774 L 169.647 285.367 C 169.647 274.482 163.277 267.17 153.797 267.17 Z " fill="rgb(37,180,105)"/><path d=" M 425.06 256.942 C 409.771 256.942 397.325 268.967 396.576 284.07 L 453.544 284.07 C 452.795 268.967 440.349 256.942 425.06 256.942 Z " fill="rgb(183,219,176)"/><path d=" M 425.06 314.054 C 440.349 314.054 452.795 302.029 453.544 286.926 L 396.576 286.926 C 397.325 302.029 409.771 314.054 425.06 314.054 Z " fill="rgb(37,180,105)"/></g></svg>