<?xml version="1.0" encoding="utf-8"?>
<!-- Generator: Adobe Illustrator 18.0.0, SVG Export Plug-In . SVG Version: 6.00 Build 0)  -->
<!DOCTYPE svg PUBLIC "-//W3C//DTD SVG 1.1//EN" "http://www.w3.org/Graphics/SVG/1.1/DTD/svg11.dtd">
<svg version="1.1" xmlns="http://www.w3.org/2000/svg" xmlns:xlink="http://www.w3.org/1999/xlink" x="0px" y="0px"
	 viewBox="0 0 409.1 100.7" enable-background="new 0 0 409.1 100.7" xml:space="preserve">
<g>
	<path d="M45.6,4.5V67c0,11.4-2.5,19.8-7.4,25.4c-5,5.5-12.5,8.3-22.5,8.3H3.5V88.8h14c5.4,0,9.5-1.7,12.5-5.1
		c2.9-3.4,4.4-8.2,4.4-14.5V4.5H45.6z"/>
	<path d="M107.3,50.2V28.8H74.2v-5.9h33.1V21c0-4.1-1.6-7.2-4.7-9.3C99.4,9.5,94.9,8.4,89,8.4c-5.9,0-10.4,1.1-13.5,3.2
		c-3.1,2.2-4.7,5.3-4.7,9.3v29.2H59.6V20.9c0-5.6,2.7-10,8-13.3C72.9,4.3,80.1,2.7,89,2.7c8.9,0,16.1,1.6,21.4,4.9
		c5.4,3.3,8.1,7.7,8.1,13.3v29.3H107.3z"/>
	<path d="M148.1,44.5c0.3,0,0.8,0,1.4,0.1c0.6,0,1.1,0.1,1.4,0.1c10.5,0,19-1.6,25.3-4.9c6.4-3.3,9.5-7.6,9.5-13
		c0-5.4-3.3-9.8-9.8-13c-6.5-3.2-15.3-4.8-26.4-4.8c-0.6,0-1.3,0-2,0c-0.7,0-1.9,0.1-3.3,0.1l-0.1,41.2H133V3.5h14.6
		c6.5,0,12.1,0.3,16.8,0.8c4.7,0.5,8.7,1.4,12,2.5c6.8,2.2,12,5.1,15.5,8.5c3.5,3.4,5.3,7.3,5.3,11.5c0,4.3-1.9,8.1-5.6,11.6
		c-3.7,3.5-9,6.4-15.9,8.6c-3.2,1-7,1.8-11.5,2.3c-4.5,0.5-9.6,0.8-15.2,0.8h-0.9V44.5z"/>
	<path d="M253.7,50.2V28.8h-33.1v-5.9h33.1V21c0-4.1-1.6-7.2-4.7-9.3c-3.1-2.2-7.7-3.2-13.6-3.2c-5.9,0-10.4,1.1-13.5,3.2
		c-3.1,2.2-4.7,5.3-4.7,9.3v29.2H206V20.9c0-5.6,2.7-10,8-13.3c5.3-3.3,12.5-4.9,21.4-4.9c8.9,0,16.1,1.6,21.4,4.9
		c5.4,3.3,8.1,7.7,8.1,13.3v29.3H253.7z"/>
	<path d="M326.4,50.2V28.8h-33.1v-5.9h33.1V21c0-4.1-1.6-7.2-4.7-9.3c-3.1-2.2-7.7-3.2-13.6-3.2c-5.9,0-10.4,1.1-13.5,3.2
		c-3.1,2.2-4.7,5.3-4.7,9.3v29.2h-11.2V20.9c0-5.6,2.7-10,8-13.3c5.3-3.3,12.5-4.9,21.4-4.9c8.9,0,16.1,1.6,21.4,4.9
		c5.4,3.3,8.1,7.7,8.1,13.3v29.3H326.4z"/>
	<path d="M351.4,100.7v-61c0-11.6,2.4-20.6,7.2-27.2c4.8-6.6,11.5-9.8,20-9.8c7.5,0,13.8,2.6,18.9,7.8c5.1,5.2,7.6,11.5,7.6,19
		c0,4.1-0.8,7.8-2.4,11.1c-1.6,3.3-4,6.2-7.2,8.6c4.3,2.1,7.7,5.2,10,9.4c2.4,4.1,3.6,8.8,3.6,14.1c0,8.4-2.6,15.1-7.8,20.3
		c-5.2,5.2-12.1,7.8-20.7,7.8h-13.9V88.5h14c5.1,0,9.1-1.5,12-4.4c2.9-2.9,4.4-6.9,4.4-12c0-4.9-1.5-8.7-4.4-11.6
		c-2.9-2.9-6.9-4.3-12-4.3h-14V44.7h9.9c5.2,0,9.4-1.3,12.5-4c3.1-2.6,4.6-6.2,4.6-10.7c0-4.6-1.4-8.3-4.1-11.2
		c-2.8-2.9-6.3-4.3-10.7-4.3c-5.2,0-9.2,1.9-12.1,5.7c-2.9,3.8-4.4,9.1-4.4,15.9v64.6H351.4z"/>
</g>
<path fill-rule="evenodd" clip-rule="evenodd" d="M70.4,96.9h-3.6l13.4-34.6h4.1l13.4,34.6h-3.6L90,86H74.5L70.4,96.9L70.4,96.9z
	 M88.8,82.9l-6.6-17.4l-6.5,17.4H88.8L88.8,82.9z M99.7,70.7h3.3v13.9c0,3.6,0.6,6.1,1.7,7.6c1.2,1.5,3.1,2.2,5.7,2.2
	c1.5,0,2.8-0.3,4-0.9c1.1-0.6,2.1-1.5,2.8-2.6c0.4-0.7,0.7-1.5,0.9-2.4c0.2-0.9,0.3-2.5,0.3-4.8V70.7h3.4v26.2h-3.4v-2.8
	c-1,1.2-2.2,2.1-3.4,2.7c-1.3,0.6-2.8,0.8-4.5,0.8c-3.8,0-6.5-1-8.2-3.1c-1.7-2-2.5-5.4-2.5-10.1V70.7L99.7,70.7z M129.3,96.9V74.1
	h-5v-3.4h5v-8.5h3.4v8.5h5v3.4h-5v22.8H129.3L129.3,96.9z M142.4,83.8c0,3,1,5.5,2.9,7.6c1.9,2,4.3,3.1,7.2,3.1c2.8,0,5.2-1,7.1-3.1
	c1.9-2,2.9-4.6,2.9-7.6c0-3.1-1-5.6-2.9-7.6c-1.9-2-4.4-3-7.3-3c-2.7,0-5,1-6.9,3.1C143.4,78.2,142.4,80.8,142.4,83.8L142.4,83.8z
	 M138.9,83.8c0-3.8,1.3-7.1,3.9-9.9c2.6-2.7,5.7-4.1,9.4-4.1c3.8,0,7,1.3,9.7,4c2.7,2.7,4,5.9,4,9.6c0,3.9-1.3,7.2-3.9,10
	c-2.6,2.8-5.8,4.1-9.5,4.1c-3.8,0-7-1.4-9.6-4.1C140.2,90.9,138.9,87.6,138.9,83.8L138.9,83.8z M190.4,74.8c1.1-1.5,2.4-2.7,4-3.4
	c1.6-0.8,3.3-1.2,5.3-1.2c3.6,0,6.1,1.1,7.8,3.2c1.6,2.1,2.4,5.6,2.4,10.3v13.2h-3.2V83c0-3.5-0.6-5.9-1.7-7.4
	c-1.1-1.5-3-2.2-5.6-2.2c-1.5,0-2.8,0.3-3.9,0.9c-1.1,0.6-2,1.5-2.7,2.6c-0.4,0.7-0.7,1.5-0.9,2.4c-0.2,0.9-0.3,2.5-0.3,4.8v12.7
	h-3.2V82.2c0-3-0.6-5.2-1.8-6.7c-1.2-1.4-3.1-2.2-5.6-2.2c-1.5,0-2.9,0.3-4,0.9c-1.1,0.6-2.1,1.5-2.7,2.6c-0.4,0.7-0.7,1.5-0.9,2.4
	c-0.2,0.9-0.3,2.5-0.3,4.8v12.7h-3.3V70.7h3.3v3c1-1.2,2.2-2,3.5-2.6c1.4-0.6,2.9-0.9,4.6-0.9c2,0,3.8,0.4,5.4,1.3
	C188.3,72.3,189.5,73.4,190.4,74.8L190.4,74.8z M237.3,83.6c0-2.8-1-5.2-3-7.3c-2-2.1-4.3-3.1-6.9-3.1c-2.8,0-5.2,1-7.2,3.1
	c-2,2.1-3,4.6-3,7.7c0,2.9,1,5.4,2.9,7.4c2,2,4.3,3,7.1,3c2.7,0,5-1.1,7-3.2C236.3,89.2,237.3,86.6,237.3,83.6L237.3,83.6z
	 M237.3,92.8c-1,1.5-2.5,2.7-4.2,3.5c-1.8,0.9-3.7,1.3-5.8,1.3c-3.8,0-7-1.3-9.6-3.9c-2.6-2.6-3.8-5.9-3.8-9.7
	c0-3.9,1.3-7.2,3.9-9.8c2.6-2.6,5.9-3.9,9.8-3.9c2,0,3.9,0.4,5.5,1.2c1.7,0.8,3.1,2,4.2,3.5v-4.2h3.3v26.2h-3.3V92.8L237.3,92.8z
	 M248.2,96.9V74.1h-5v-3.4h5v-8.5h3.4v8.5h5v3.4h-5v22.8H248.2L248.2,96.9z M262.6,67.7h-3.4v-5.4h3.4V67.7L262.6,67.7z M259.2,96.9
	V70.7h3.4v26.2H259.2L259.2,96.9z M270.1,83.8c0,3,1,5.5,2.9,7.6c1.9,2,4.3,3.1,7.2,3.1c2.8,0,5.2-1,7.1-3.1c1.9-2,2.8-4.6,2.8-7.6
	c0-3.1-1-5.6-2.9-7.6c-1.9-2-4.4-3-7.3-3c-2.7,0-5,1-6.9,3.1C271,78.2,270.1,80.8,270.1,83.8L270.1,83.8z M266.6,83.8
	c0-3.8,1.3-7.1,3.9-9.9c2.6-2.7,5.8-4.1,9.4-4.1c3.8,0,7,1.3,9.7,4c2.7,2.7,4,5.9,4,9.6c0,3.9-1.3,7.2-3.9,10
	c-2.6,2.8-5.8,4.1-9.5,4.1c-3.8,0-7-1.4-9.6-4.1C267.9,90.9,266.6,87.6,266.6,83.8L266.6,83.8z M297.5,70.7h3.3v3
	c1-1.2,2.2-2.1,3.6-2.6c1.4-0.6,2.9-0.9,4.7-0.9c1.9,0,3.6,0.4,5.1,1.1c1.5,0.7,2.7,1.7,3.6,3.1c0.6,0.9,1,2,1.3,3.3
	c0.3,1.3,0.4,3.1,0.4,5.6v13.7h-3.3V82.2c0-3.1-0.6-5.3-1.8-6.7c-1.2-1.4-3.1-2.1-5.7-2.1c-1.5,0-2.9,0.3-4,0.9
	c-1.1,0.6-2.1,1.5-2.7,2.6c-0.4,0.7-0.7,1.5-0.9,2.4c-0.2,0.9-0.3,2.5-0.3,4.8v12.7h-3.3V70.7L297.5,70.7z"/>
<g>
	<path fill="#0075BF" d="M42.1,1.8v62.6c0,11.4-2.5,19.8-7.4,25.4c-5,5.5-12.5,8.3-22.5,8.3H0V86.2h14c5.4,0,9.5-1.7,12.5-5.1
		c2.9-3.4,4.4-8.2,4.4-14.5V1.8H42.1z"/>
	<path fill="#0075BF" d="M103.7,47.6V26.1H70.7v-5.9h33.1v-1.9c0-4.1-1.6-7.2-4.7-9.3c-3.1-2.2-7.7-3.2-13.6-3.2
		c-5.9,0-10.4,1.1-13.5,3.2c-3.1,2.2-4.7,5.3-4.7,9.3v29.2H56V18.2c0-5.6,2.7-10,8-13.3C69.4,1.6,76.5,0,85.5,0
		c8.9,0,16.1,1.6,21.4,4.9c5.4,3.3,8.1,7.7,8.1,13.3v29.3H103.7z"/>
	<path fill="#0075BF" d="M144.5,41.8c0.3,0,0.8,0,1.4,0.1c0.6,0,1.1,0.1,1.4,0.1c10.5,0,19-1.6,25.3-4.9c6.4-3.3,9.5-7.6,9.5-13
		c0-5.4-3.3-9.8-9.8-13c-6.5-3.2-15.3-4.8-26.4-4.8c-0.6,0-1.3,0-2,0c-0.7,0-1.9,0.1-3.3,0.1l-0.1,41.2h-11.2V0.9h14.6
		c6.5,0,12.1,0.3,16.8,0.8c4.7,0.5,8.7,1.4,12,2.5c6.8,2.2,12,5.1,15.5,8.5c3.5,3.4,5.3,7.3,5.3,11.5c0,4.3-1.9,8.1-5.6,11.6
		c-3.7,3.5-9,6.4-15.9,8.6c-3.2,1-7,1.8-11.5,2.3c-4.5,0.5-9.6,0.8-15.2,0.8h-0.9V41.8z"/>
	<path fill="#0075BF" d="M250.1,47.6V26.1H217v-5.9h33.1v-1.9c0-4.1-1.6-7.2-4.7-9.3c-3.1-2.2-7.7-3.2-13.6-3.2
		c-5.9,0-10.4,1.1-13.5,3.2c-3.1,2.2-4.7,5.3-4.7,9.3v29.2h-11.2V18.2c0-5.6,2.7-10,8-13.3c5.3-3.3,12.5-4.9,21.4-4.9
		c8.9,0,16.1,1.6,21.4,4.9c5.4,3.3,8.1,7.7,8.1,13.3v29.3H250.1z"/>
	<path fill="#0075BF" d="M322.8,47.6V26.1h-33.1v-5.9h33.1v-1.9c0-4.1-1.6-7.2-4.7-9.3c-3.1-2.2-7.7-3.2-13.6-3.2
		c-5.9,0-10.4,1.1-13.5,3.2c-3.1,2.2-4.7,5.3-4.7,9.3v29.2h-11.2V18.2c0-5.6,2.7-10,8-13.3c5.3-3.3,12.5-4.9,21.4-4.9
		c8.9,0,16.1,1.6,21.4,4.9c5.4,3.3,8.1,7.7,8.1,13.3v29.3H322.8z"/>
	<path fill="#0075BF" d="M347.8,98.1V37c0-11.6,2.4-20.6,7.2-27.2c4.8-6.6,11.5-9.8,20-9.8c7.5,0,13.8,2.6,18.9,7.8
		c5.1,5.2,7.6,11.5,7.6,19c0,4.1-0.8,7.8-2.4,11.1c-1.6,3.3-4,6.2-7.2,8.6c4.3,2.1,7.7,5.2,10,9.4c2.4,4.1,3.6,8.8,3.6,14.1
		c0,8.4-2.6,15.1-7.8,20.3c-5.2,5.2-12.1,7.8-20.7,7.8h-13.9V85.9h14c5.1,0,9.1-1.5,12-4.4c2.9-2.9,4.4-6.9,4.4-12
		c0-4.9-1.5-8.7-4.4-11.6c-2.9-2.9-6.9-4.3-12-4.3h-14V42h9.9c5.2,0,9.4-1.3,12.5-4c3.1-2.6,4.6-6.2,4.6-10.7
		c0-4.6-1.4-8.3-4.1-11.2c-2.8-2.9-6.3-4.3-10.7-4.3c-5.2,0-9.2,1.9-12.1,5.7c-2.9,3.8-4.4,9.1-4.4,15.9v64.6H347.8z"/>
</g>
</svg>
