<?xml version="1.0" encoding="utf-8"?>
<!-- Generator: Adobe Illustrator 20.1.0, SVG Export Plug-In . SVG Version: 6.00 Build 0)  -->
<svg version="1.1" id="b96a9943-9243-4950-aa89-b74548270e15"
	 xmlns="http://www.w3.org/2000/svg" xmlns:xlink="http://www.w3.org/1999/xlink" x="0px" y="0px" viewBox="0 0 255.6 111.3"
	 style="enable-background:new 0 0 255.6 111.3;" xml:space="preserve">
<style type="text/css">
	.st0{opacity:0.5;}
	.st1{fill:#325372;}
	.st2{fill:#FFFFFF;}
</style>
<g class="st0">
	<polygon class="st1" points="6.2,5.3 20,5.3 20,38.6 50.8,38.6 50.8,50.1 6.2,50.1 	"/>
	<path class="st1" d="M69.8,30.1c0,6.5,1.4,9,7.8,9h17.6c6.5,0,7.8-2.5,7.8-9v-4.8c0-5.6-1.4-9-8.6-9H78.4c-7.2,0-8.6,3.4-8.6,9
		V30.1z M55.7,21C55.7,7.9,63,4.8,75.4,4.8h22.1c12.4,0,19.7,3.1,19.7,16.2v13.4c0,13.1-7.4,16.2-19.7,16.2h-22
		c-12.4,0-19.7-3.1-19.7-16.2L55.7,21z"/>
	<polygon class="st1" points="143.2,27.7 122.8,5.3 140.5,5.3 154.4,21 168.3,5.3 186.1,5.3 165.7,27.7 187.6,50.1 169.2,50.1 
		154.4,33.8 139.6,50.1 121.2,50.1 	"/>
	<polygon class="st1" points="213.3,34.5 188.5,5.3 205.1,5.3 220.1,23.6 235.2,5.3 251.8,5.3 227,34.5 227,50.1 213.3,50.1 	"/>
	<path class="st1" d="M5.4,93.4h13.7c0.1,4.8,2,5.1,5.9,5.1h16.8c2.9,0,5.9-0.3,5.9-3.8c0-3.9-1.6-4.1-19.3-4.1
		c-20.7,0-23-2.5-23-13.5c0-8.1,0.7-14.3,18-14.3h19.2c15.8,0,17.3,5.4,17.3,13.2v1.4H46.3c0-3.3-0.4-4.6-6.7-4.6H24.4
		c-3.1,0-5.2,1.1-5.2,3.5c0,3.9,1.7,4,16.4,4c21.3-0.1,26.3,1.2,26.3,14.3c0,12.1-4.1,14-22.3,14H22.9c-12.5,0-17.5-2.3-17.5-12.1
		V93.4z"/>
	<path class="st1" d="M83.4,88.1c0,6.5,1.4,9,7.9,9h17.6c6.5,0,7.8-2.5,7.8-9v-4.8c0-5.6-1.4-9-8.6-9H92.1c-7.2,0-8.6,3.4-8.6,9
		L83.4,88.1z M69.3,79c0-13.1,7.4-16.2,19.8-16.2h22c12.4,0,19.7,3.1,19.7,16.2v13.3c0,13.1-7.4,16.2-19.7,16.2h-22
		c-12.4,0-19.7-3.1-19.7-16.2L69.3,79z"/>
	<polygon class="st1" points="139.1,63.3 185.9,63.3 185.9,74.1 152.9,74.1 152.9,82.4 184.3,82.4 184.3,92.8 152.9,92.8 
		152.9,108.1 139.1,108.1 	"/>
	<polygon class="st1" points="190.9,63.3 243.2,63.3 243.2,74.5 223.9,74.5 223.9,108.1 210.2,108.1 210.2,74.5 190.9,74.5 	"/>
</g>
<title>ikon-logo-loxysoft</title>
<g>
	<polygon class="st2" points="5.4,4.3 19.2,4.3 19.2,37.5 50,37.5 50,49 5.4,49 	"/>
	<path class="st2" d="M69,29.1c0,6.5,1.4,9,7.8,9h17.6c6.5,0,7.8-2.5,7.8-9v-4.8c0-5.6-1.4-9-8.6-9H77.6c-7.2,0-8.6,3.4-8.6,9V29.1z
		 M54.9,20c0-13.1,7.4-16.2,19.7-16.2h22.1c12.4,0,19.7,3.1,19.7,16.2v13.4c0,13.1-7.4,16.2-19.7,16.2h-22
		c-12.4,0-19.7-3.1-19.7-16.2L54.9,20z"/>
	<polygon class="st2" points="142.4,26.6 122,4.3 139.7,4.3 153.6,19.9 167.5,4.3 185.3,4.3 164.9,26.6 186.8,49 168.4,49 
		153.6,32.8 138.8,49 120.4,49 	"/>
	<polygon class="st2" points="212.5,33.5 187.7,4.3 204.2,4.3 219.3,22.6 234.4,4.3 251,4.3 226.2,33.5 226.2,49 212.5,49 	"/>
	<path class="st2" d="M4.6,92.4h13.7c0.1,4.8,2,5.1,5.9,5.1h16.8c2.9,0,5.9-0.3,5.9-3.8c0-3.9-1.6-4.1-19.3-4.1
		c-20.7,0-23-2.5-23-13.5c0-8.1,0.7-14.3,18-14.3h19.2c15.8,0,17.3,5.4,17.3,13.2v1.4H45.5c0-3.3-0.4-4.6-6.7-4.6H23.6
		c-3.1,0-5.2,1.1-5.2,3.5c0,3.9,1.7,4,16.4,4c21.3-0.1,26.3,1.2,26.3,14.3c0,12.1-4.1,14-22.3,14H22.1c-12.5,0-17.5-2.3-17.5-12.1
		V92.4z"/>
	<path class="st2" d="M82.6,87.1c0,6.5,1.4,9,7.9,9h17.6c6.5,0,7.8-2.5,7.8-9v-4.8c0-5.6-1.4-9-8.6-9H91.3c-7.2,0-8.6,3.4-8.6,9
		L82.6,87.1z M68.5,78c0-13.1,7.4-16.2,19.8-16.2h22c12.4,0,19.7,3.1,19.7,16.2v13.3c0,13.1-7.4,16.2-19.7,16.2h-22
		c-12.4,0-19.7-3.1-19.7-16.2L68.5,78z"/>
	<polygon class="st2" points="138.3,62.3 185.1,62.3 185.1,73 152.1,73 152.1,81.4 183.5,81.4 183.5,91.7 152.1,91.7 152.1,107 
		138.3,107 	"/>
	<polygon class="st2" points="190.1,62.3 242.4,62.3 242.4,73.4 223.1,73.4 223.1,107 209.4,107 209.4,73.4 190.1,73.4 	"/>
</g>
</svg>
