<svg xmlns:dc="http://purl.org/dc/elements/1.1/" xmlns:cc="http://creativecommons.org/ns#" xmlns:rdf="http://www.w3.org/1999/02/22-rdf-syntax-ns#" xmlns:svg="http://www.w3.org/2000/svg" xmlns="http://www.w3.org/2000/svg" viewBox="40 133 50.19 266.36" height="266.36" width="1420.19" preserveAspectRatio="xMinYMin meet" version="1.1" id="svg2">
  <metadata id="metadata8">
    <rdf:RDF>
      <cc:Work rdf:about="">
        <dc:format>
          image/svg+xml
        </dc:format>
        <dc:type rdf:resource="http://purl.org/dc/dcmitype/StillImage"/>
      </cc:Work>
    </rdf:RDF>
  </metadata>
  <defs id="defs6">
    <clipPath id="clipPath16" clipPathUnits="userSpaceOnUse">
      <path id="path18" d="m0 841.89 1190.55 0 0-841.89L0 0 0 841.89Z"/>
    </clipPath>
  </defs>
  <g transform="matrix(1.25,0,0,-1.25,0,1052.3625)" id="g10">
    <g id="g12">
      <g clip-path="url(#clipPath16)" id="g14">
        <g transform="translate(121.1772,679.5493)" id="g20">
          <path id="path22" d="M0 0C-5.44 5.21-15.48 7.86-29.87 7.86-49.2 7.85-60.93 3.65-64.82-4.63l0 10.24-21.23 0 0.03-109.24 21.23 0.01-0.02 78.74c0 6.61 1.94 11.18 5.76 13.6 3.91 2.46 11.78 3.71 23.4 3.72 4.97 0 9.16-0.48 12.44-1.43 3.21-0.93 5.52-2.29 6.86-4.04 1.37-1.8 2.27-3.57 2.7-5.27 0.43-1.73 0.65-3.94 0.66-6.56l0.02-78.74 21.23 0.01-0.02 79.86C8.22-13.21 5.45-5.22 0 0" style="fill-rule:nonzero;fill:#536a7f"/>
        </g>
        <g transform="translate(209.2319,574.2949)" id="g24">
          <path id="path26" d="m0 0 0 0 0 0zm-2.86 99.18 0-0.56c9.22 0 15.87-1.21 19.78-3.6 3.82-2.33 5.76-6.72 5.77-13.03l0-16.41-51.37-0.01 0 16.41c0 6.45 2.08 10.87 6.18 13.14 4.22 2.33 10.81 3.51 19.61 3.51l0.03 0.56zM43.92 75.73c0 13.82-3.73 23.63-11.06 29.15-7.29 5.48-18.93 8.26-34.63 8.26-16.72 0-29.08-2.9-36.74-8.61-7.71-5.75-11.61-15.44-11.61-28.82L-50.12 33.05C-50.11 10.74-33.25-0.56 0-0.56l0.04 0c12.63 0 25.83 1.52 39.21 4.49l0.44 0.1 0 16.59-0.7-0.18C25.1 16.89 12.89 15.08 2.69 15.08c-10.41 0-18.34 1.59-23.58 4.72-5.15 3.08-7.77 8.36-7.77 15.71l0 15.74 72.6 0.02-0.01 24.46z" style="fill-rule:nonzero;fill:#536a7f"/>
        </g>
        <g transform="translate(328.5142,574.3271)" id="g28">
          <path id="path30" d="M0 0 0 0 0 0ZM22.51 15.53C14.25 14.34 8.87 13.74 6.48 13.74c-8.89 0-14.84 1.27-17.7 3.77-2.84 2.48-4.28 7.56-4.28 15.1l-0.02 63.99 38.64 0.01 0 14.3-38.64-0.01-0.01 33.51-21.45-0.01 0.01-33.51-24.12-0.01 0-14.3 24.12 0.01 0.02-62.87c0-13.21 2.78-22.34 8.24-27.11 5.44-4.75 15.1-7.17 28.71-7.17l0.03 0c7.88 0 15.5 0.61 22.65 1.8l0.47 0.08 0 14.3-0.64-0.09z" style="fill-rule:nonzero;fill:#536a7f"/>
        </g>
        <g transform="translate(415.9048,673.0796)" id="g32">
          <path id="path34" d="m0 0 0-0.56c11.71 0 19.52-1.28 23.2-3.8 3.62-2.48 5.45-7.17 5.46-13.94l0.01-48.92c0-6.89-2.19-11.57-6.51-13.91-4.44-2.4-11.75-3.62-21.78-3.62-10.84 0-18.13 1.13-21.66 3.37-3.46 2.18-5.21 6.95-5.21 14.15l-0.01 48.92c0 6.93 1.65 11.66 4.9 14.07 3.31 2.45 10.56 3.69 21.56 3.69L0 0ZM29.99 12.19 29.99 3.55C25.65 10.76 14.75 14.41-2.51 14.41-18.35 14.41-29.92 11.58-36.92 6.02-43.95 0.42-47.51-8.98-47.51-21.9l0.01-44c0-12.18 3.12-20.9 9.26-25.9 6.1-4.97 17.67-7.49 34.42-7.49 8.5 0 16.18 1.07 22.84 3.16 4.84 1.52 8.07 3.86 9.65 6.97l0.01-21.62c0-7.36-2.28-12.7-6.79-15.85-4.58-3.19-12.02-4.82-22.16-4.82-8.86 0-21.98 1.05-38.99 3.11l-0.63 0.08 0-15.4 0.47-0.08c9.5-1.63 22.04-2.45 37.27-2.45l0.12 0c17.15 0 30.21 2.7 38.83 8.02 8.7 5.38 13.11 15.95 13.1 31.42L49.88 12.19 29.99 12.19Z" style="fill-rule:nonzero;fill:#536a7f"/>
        </g>
        <g transform="translate(548.5342,687.5273)" id="g36">
          <path id="path38" d="m0 0c-6.78 0-13.53-2.06-20.06-6.12-4.41-2.74-7.37-5.79-8.86-9.11l0 12.99-20.11 0 0.03-109.24 21.23 0.01-0.02 76.73c0 6.3 2.12 10.64 6.29 12.91 4.29 2.33 11.08 3.51 20.17 3.51L10.4-18.32 10.39 0 0 0Z" style="fill-rule:nonzero;fill:#536a7f"/>
        </g>
        <g transform="translate(611.7393,574.4033)" id="g40">
          <path id="path42" d="m0 0 0 0 0 0zm-19.29 33.72c0 8.3 1.11 13.65 3.3 15.92 2.19 2.26 7.88 3.41 16.91 3.41l30.49 0.01 0.01-28.92c0-2.39-0.78-4.26-2.38-5.73-1.63-1.49-4.06-2.57-7.22-3.22-3.25-0.67-6.19-1.08-8.74-1.22-2.56-0.15-5.82-0.22-9.68-0.22l-4.04 0c-7.67 0-12.74 1.47-15.07 4.37-2.36 2.93-3.56 8.19-3.57 15.62m63.66 72.71c-5.44 4.45-17.41 6.71-35.65 6.71-11.87 0-25.34-0.68-40.03-2.02l-0.51-0.05 0-15.9 0.64 0.08c13.61 1.78 26.06 2.68 37.04 2.69 9.96 0 16.8-1.03 20.35-3.05 3.44-1.97 5.19-5.86 5.19-11.57L31.4 66.69-0.43 66.68C-15.83 66.68-26.4 64.34-31.84 59.73-37.3 55.09-40.07 46.57-40.07 34.39-40.07 20.42-37.1 10.99-31.25 6.36-25.45 1.77-14.94-0.56 0-0.56l0.04 0c17.72 0.01 28.47 3.32 32.05 9.88l0-7.63 20.56 0.01-0.02 76.96c0 13.96-2.78 23.31-8.26 27.8" style="fill-rule:nonzero;fill:#536a7f"/>
        </g>
        <g transform="translate(747.1475,672.499)" id="g44">
          <path id="path46" d="m0 0 0-0.56c10.84 0 18.47-1.36 22.67-4.04 4.13-2.63 6.22-8.9 6.23-18.62l0.01-39.76c0-8.84-2.05-14.57-6.09-17.06-4.13-2.54-11.74-3.83-22.64-3.83-10.7 0-18.13 1.28-22.11 3.82-3.9 2.48-5.88 8.22-5.89 17.06l-0.01 39.76c0 9.88 1.9 16.19 5.67 18.75 3.83 2.6 11.28 3.93 22.13 3.93L0 0ZM40.44 5.9C33.74 12 22.98 15.08 8.45 15.08-12.26 15.08-24.51 11.22-28.06 3.6l0 9.24-21 0 0.04-155.7 21.23 0.01-0.01 52c1.92-2.42 5.28-4.27 10.02-5.51 5.68-1.49 11.59-2.25 17.57-2.25 5.92 0 11.04 0.19 15.24 0.56 4.18 0.38 8.73 1.33 13.52 2.82 4.82 1.51 8.76 3.61 11.71 6.26 2.95 2.65 5.44 6.44 7.4 11.27 1.95 4.82 2.94 10.6 2.94 17.19l-0.01 44.45C50.56-7.61 47.16-0.21 40.44 5.9" style="fill-rule:nonzero;fill:#536a7f"/>
        </g>
        <g transform="translate(913.4629,679.7632)" id="g48">
          <path id="path50" d="M0 0C-5.44 5.21-15.48 7.86-29.87 7.86-49.2 7.85-60.92 3.65-64.82-4.63l-0.02 58.49-21.23 0 0.04-157.48 21.23 0.01-0.02 78.52c0 6.33 1.8 10.84 5.35 13.39 3.61 2.6 11.61 3.92 23.82 3.92 4.97 0 9.16-0.48 12.44-1.43 3.22-0.93 5.52-2.29 6.86-4.04 1.36-1.8 2.27-3.57 2.7-5.27 0.43-1.73 0.66-3.94 0.66-6.56l0.02-78.52 21.23 0.01-0.02 79.86C8.22-13.21 5.45-5.22 0 0" style="fill-rule:nonzero;fill:#536a7f"/>
        </g>
        <g transform="translate(992.3857,645.1074)" id="g52">
          <path id="path54" d="m0 0 0.07-4.9 0.06-0.2c0.34-1.25 1.81-5.35 6.26-3.64 5.19 2 17.22 6.65 17.22 6.65 0 0 5.49 2.67 5.07 7.02-0.41 4.37-0.86 9.26-0.86 9.26 0 0-0.61 4.38-6.09 2.17-5.48-2.21-15.19-5.86-15.19-5.86 0 0-5.87-1.9-6.46-6.02C-0.29 1.76 0.09 0.88 0 0" style="fill-rule:nonzero;fill:#536a7f"/>
        </g>
        <g transform="translate(983.3564,670.8452)" id="g56">
          <path id="path58" d="m0 0c-4.44-1.36-15.1-5.65-15.1-5.65-5.67-1.74-5.7-5.74-5.7-5.83l-1.06-7.1c0 0-0.93-5.78 4.68-3.7 5.63 2.07 14.49 5.58 14.49 5.58 0 0 5.43 1.39 5.87 6.35 0.44 4.96 0.76 7.62 0.76 7.62 0 0 0.51 4.08-3.95 2.73" style="fill-rule:nonzero;fill:#536a7f"/>
        </g>
        <g transform="translate(1072.9434,617.7915)" id="g60">
          <path id="path62" d="m0 0c-1.72 7.29-11.41 2.83-11.41 2.83 0 0-7.81-3.2-16.42-6.17-8.63-2.96-9.02-9.45-9.02-9.45 0 0 0.68-8.77 1.95-16.26 1.24-7.47 9.66-5.85 9.66-5.85 0 0 16.74 5.38 24.26 8.83 7.54 3.46 6.3 10.4 6.3 10.4L0 0Z" style="fill-rule:nonzero;fill:#536a7f"/>
        </g>
        <g transform="translate(1022.877,634.5405)" id="g64">
          <path id="path66" d="m0 0c0 0-1.14 4.35-5.76 2.76-4.62-1.61-19.57-7.64-19.57-7.64 0 0-5.33-1.88-5.81-5.77-0.48-3.9-0.27-13.85-0.27-13.85 0 0 0.98-6.05 7.28-3.62 6.3 2.43 20.59 8.04 20.59 8.04 0 0 6.48 1.51 5.04 7.11L0 0Z" style="fill-rule:nonzero;fill:#536a7f"/>
        </g>
        <g transform="translate(1040.5986,622.395)" id="g68">
          <path id="path70" d="m0 0c5.51 2.13 21.24 8.02 21.24 8.02 0 0 6.2 2.22 4.34 7.47-1.85 5.25-4.06 11.72-4.06 11.72 0 0-0.81 4.66-6.19 2.68-5.39-1.99-20.71-7.99-20.71-7.99 0 0-4.67-1.26-4.24-5.16 0.42-3.91 2.19-13.63 2.19-13.63 0 0 1.93-5.22 7.44-3.09" style="fill-rule:nonzero;fill:#536a7f"/>
        </g>
        <g transform="translate(1101.3145,665.6455)" id="g72">
          <path id="path74" d="m0 0c-2.56 3.35-8.57 0.67-8.57 0.67 0 0-11.65-4.5-16.86-6.24-5.21-1.75-4.06-6.82-4.06-6.82 0 0 2.18-5.67 4.53-11.01 2.33-5.33 8.26-2.87 8.26-2.87 0 0 16.56 6.3 22.05 8.24 5.49 1.94 2.27 6.76 2.27 6.76 0 0-5.04 7.91-7.61 11.26" style="fill-rule:nonzero;fill:#536a7f"/>
        </g>
        <g transform="translate(1140.9219,680.6636)" id="g76">
          <path id="path78" d="m0 0c-3.15 3.49-9.46 0.61-9.46 0.61 0 0-13.12-4.89-18.14-6.83-5.05-1.95-3.36-6.09-3.36-6.09 0 0 3.53-5.42 6.99-10.6 3.44-5.18 9.07-2.65 9.07-2.65 0 0 18.81 7.26 23.22 8.97 4.41 1.7 2.05 5.94 2.05 5.94 0 0-7.2 7.16-10.35 10.65" style="fill-rule:nonzero;fill:#536a7f"/>
        </g>
        <g transform="translate(1165.4746,705.6113)" id="g80">
          <path id="path82" d="m0 0c0 0-4.92 3.62-8.53 6.66-3.62 3.04-8.57 1.12-8.57 1.12 0 0-9.37-3.62-15.66-6.06-3.93-1.51-3.45-4.12-3-5.27 0.02-0.08 0.12-0.27 0.19-0.42 0.05-0.09 0.08-0.16 0.08-0.16l7.39-6.72c0.05-0.03 0.08-0.07 0.12-0.1 0.04-0.03 0.07-0.06 0.1-0.09 3.51-2.81 8.29-1.24 8.29-1.24 0 0 14.59 5.55 18.92 7.22C3.66-3.37 0 0 0 0" style="fill-rule:nonzero;fill:#536a7f"/>
        </g>
        <g transform="translate(1095.9082,688.7964)" id="g84">
          <path id="path86" d="m0 0c2.12-2.9 5.22-7.67 5.22-7.67 0 0 4.18-3.35 9.95-1.4 5.76 1.96 16.63 6.61 16.63 6.61 0 0 6.22 1.94 2.24 5.92-3.98 3.98-7.23 7.25-7.23 7.25 0 0-2.58 3.16-7.41 0.93L3.17 5.38C3.17 5.38-2.1 2.89 0 0" style="fill-rule:nonzero;fill:#536a7f"/>
        </g>
        <g transform="translate(1081.7002,687.645)" id="g88">
          <path id="path90" d="m0 0-15.95-6.25c0 0-4.97-2.1-3.56-5.54 1.42-3.43 2.88-6.76 2.88-6.76 0 0 3.32-5.77 8.08-4.03 4.75 1.75 16.65 6.52 16.65 6.52 0 0 6.5 2.15 3.79 6.36-2.7 4.2-5.3 7.63-5.3 7.63 0 0-1.74 3.85-6.58 2.07" style="fill-rule:nonzero;fill:#536a7f"/>
        </g>
        <g transform="translate(1035.0898,650.4736)" id="g92">
          <path id="path94" d="m0 0c4.21 1.53 17.73 6.85 17.73 6.85 0 0 6.22 1.86 4.25 6.98-1.98 5.12-3.04 8.14-3.04 8.14 0 0-1.25 4.13-6.33 2.08-5.08-2.06-16.19-6.34-16.19-6.34 0 0-4.97-1.65-4.51-5.19 0.46-3.53 1.66-9.4 1.66-9.4 0 0 2.24-4.65 6.44-3.11" style="fill-rule:nonzero;fill:#536a7f"/>
        </g>
        <g transform="translate(998.6367,661.2754)" id="g96">
          <path id="path98" d="m0 0 15.25 6.16c0 0 5.06 1.41 4.47 5.98-0.58 4.57-1.05 6.93-1.05 6.93 0 0 0.3 3.92-4.66 2-4.96-1.92-14.77-5.8-14.77-5.8 0 0-4.66-1.98-4.78-5.19L-5.64 6.86-5.81 3.09C-5.45-2.75 0 0 0 0" style="fill-rule:nonzero;fill:#536a7f"/>
        </g>
        <g transform="translate(1031.3818,674.3677)" id="g100">
          <path id="path102" d="m0 0 13.99 5.22c0 0 5.6 1.89 3.7 6.58l-2.05 5.54c0 0-1.45 3.52-6.14 1.62L4.81 17.06-3.38 13.89c0 0-4.61-1.87-4.08-5.11 0.52-3.23 0.62-3.46 0.62-3.46l0.41-2.46c0 0 0.38-5.47 6.44-2.86" style="fill-rule:nonzero;fill:#536a7f"/>
        </g>
        <g transform="translate(1058.0488,699.9463)" id="g104">
          <path id="path106" d="m0 0c0 0-4.96-1.45-3.68-5.48 1.28-4.03 2.4-5.5 2.4-5.5 0 0 0.02-0.07 0.08-0.17 0.41-0.75 2.33-3.79 6.84-2.05 5.11 1.97 14.79 5.71 14.79 5.71 0 0 4.07 2.12 2.02 5.31-2.05 3.18-3.36 5.21-3.36 5.21 0 0-1.6 3.9-7.08 1.7C6.52 2.52 0 0 0 0" style="fill-rule:nonzero;fill:#536a7f"/>
        </g>
        <g transform="translate(1077.5186,715.7915)" id="g108">
          <path id="path110" d="m0 0c0 0 2.59-3.88 6.57-2.26 1.1 0.45 2.54 1.03 4.07 1.64 4.46 1.78 9.65 3.84 9.65 3.84 0 0 4.55 2.03 1.95 4.55-2.6 2.53-2.97 3.01-2.97 3.01 0 0-2.59 2.71-6.58 1.35C8.69 10.77 0.63 7.29 0.63 7.29c0 0-4.19-1.53-2.68-4.56L0 0Z" style="fill-rule:nonzero;fill:#536a7f"/>
        </g>
        <g transform="translate(1022.0391,693.6479)" id="g112">
          <path id="path114" d="m0 0c0 0 0.51-3.16 4.5-2.07 4.02 1.1 14.71 5.51 14.71 5.51 0 0 3.58 1.01 2.23 4.75l-1.35 3.73c0 0-1.2 2.88-4.29 1.96C12.72 12.96 3.14 8.99 3.14 8.99c0 0-4.3-1.31-3.97-4.25C-0.51 1.79 0 0 0 0" style="fill-rule:nonzero;fill:#536a7f"/>
        </g>
        <g transform="translate(998.3955,680.6255)" id="g116">
          <path id="path118" d="m0 0c4.14 1.24 13.38 5.17 13.38 5.17 0 0 5.38 1.53 4.52 5.18l-0.53 4.41c0 0-0.19 3.09-3.7 2.1-3.51-0.99-13.44-5.01-13.44-5.01 0 0-4.52-1.65-5.09-4.59-0.58-2.95 0-4.7 0-4.7 0 0 0.73-3.79 4.87-2.55" style="fill-rule:nonzero;fill:#536a7f"/>
        </g>
        <g transform="translate(1043.2949,720.125)" id="g120">
          <path id="path122" d="m0 0c0 0 0.99-1.88 1.78-3.93 0.8-2.05 5.38-0.55 5.38-0.55 0 0 7.03 2.62 10.98 4.33 3.96 1.7 1.6 4.77 1.6 4.77l-1.6 2.28c-1.19 2.16-4.41 1.1-4.41 1.1L3.26 3.96C0.01 3-0.15 1.11-0.07 0.34-0.04 0.12 0 0 0 0" style="fill-rule:nonzero;fill:#536a7f"/>
        </g>
        <g transform="translate(1050.4453,713.2202)" id="g124">
          <path id="path126" d="M0 0C-0.09-0.04-2.28-0.91-2.94-2.63-3.24-3.42-3.17-4.25-2.74-5.11L0.2-10.58c0.02-0.05 0.55-1.26 2.56-1.26 0.84 0 1.83 0.21 2.95 0.64 4.26 1.62 13.22 5.25 13.32 5.29 0.09 0.05 2.21 1.15 2.65 2.98 0.21 0.88 0 1.77-0.64 2.65-2.09 2.89-2.28 3.35-2.3 3.39-0.04 0.09-1.08 2.21-3.83 2.21-0.79 0-1.65-0.18-2.55-0.53C7.92 3.04 0.08 0.03 0 0" style="fill-rule:nonzero;fill:#536a7f"/>
        </g>
        <g transform="translate(1085.2568,711.1797)" id="g128">
          <path id="path130" d="m0 0c-1.35-0.58-2.16-1.39-2.41-2.4-0.41-1.66 0.84-3.23 0.88-3.28 0.12-0.19 3.05-4.73 5.24-6.9 0.63-0.62 1.52-0.94 2.65-0.94 2.31 0 4.84 1.29 4.93 1.34 0.1 0.04 9.74 3.8 14.81 5.98 1.62 0.7 2.54 1.62 2.74 2.75 0.32 1.83-1.42 3.48-1.48 3.54-0.02 0.03-2.41 2.46-4.82 4.99-0.93 0.97-2.25 1.46-3.94 1.46-1.82 0-3.39-0.58-3.46-0.61L0 0Z" style="fill-rule:nonzero;fill:#536a7f"/>
        </g>
      </g>
    </g>
  </g>
</svg>
