<svg xmlns="http://www.w3.org/2000/svg" width="255.01" height="83.21" viewBox="0 0 255.01 83.21"><defs><style>.a{fill:#eb6f93;}</style></defs><title>voady_pink_logo</title><path class="a" d="M57.13,44.91c0,11.65,10.14,20.91,21.71,20.91,11.72,0,21.79-9.35,21.79-20.91S90.56,24,78.83,24c-11.57,0-21.71,9.35-21.71,20.91m9.82,0c0-7,5.15-12.59,11.88-12.59s12,5.62,12,12.59-5.15,12.6-12,12.6S67,52,67,44.91"/><path class="a" d="M141.28,24.87v5.94A16.22,16.22,0,0,0,127.65,24c-12.28,0-19.73,9.43-19.73,20.76,0,11.72,7.76,21.07,19.65,21.07,5.86,0,10.85-2.54,13.71-6.89v6H151V24.87Zm-23.53,20c0-6.89,4.2-12.67,11.57-12.67,7.21,0,12.2,5.31,12.2,13.07,0,7.92-5.31,12.44-12,12.44-7.29,0-11.8-5.7-11.8-12.83"/><path class="a" d="M170.15,44.95c0-6.89,4.12-12.67,11.49-12.67s12.2,5.31,12.2,13.07c0,7.92-5.23,12.44-11.88,12.44-7.29,0-11.8-5.7-11.8-12.83M193.68,7.79V30.92A16.46,16.46,0,0,0,180,24.11c-12.28,0-19.65,9.43-19.65,20.76,0,11.72,7.76,21.07,19.57,21.07,5.86,0,10.85-2.53,13.78-6.89v6h9.74V7.79Z"/><polygon class="a" points="233.62 52.47 222.69 24.98 211.68 24.98 228.71 62.69 220.55 83.21 230.13 83.21 255.01 24.98 244.08 24.98 233.62 52.47"/><path class="a" d="M53.35,10.29a16.37,16.37,0,0,0-9.15-9.23c-7.39-3-17.11.58-20.8,7.65A16.51,16.51,0,0,0,31,31.27l.51.24,3.8-8.41-.48-.24a7.25,7.25,0,1,1,9.81-3.47l-3.2,7.08L27,56.39,10.15,21.51H0L19,60.79a8.91,8.91,0,0,0,16,0L49.15,31.56,53,23.27a16.35,16.35,0,0,0,.35-13"/></svg>